<svg xmlns="http://www.w3.org/2000/svg" viewBox="0 0 512 512" width="512" height="512">
    <rect width="512" height="512" rx="100" fill="#1E293B"/>
    <path d="M160 160 v200 a60 60 0 0 0 60 60 h70 a60 60 0 0 0 60 -60 v-200 H160 z" fill="#059669"/>
    <path d="M350 190 h40 a40 40 0 0 1 40 40 v20 a40 40 0 0 1 -40 40 h-40" fill="none" stroke="#059669" stroke-width="30"/>
    <path d="M256 120 c0 -30 -20 -40 -20 -60 s20 -40 20 -40" fill="none" stroke="#F7F9FC" stroke-width="15" stroke-linecap="round"/>
    <path d="M210 120 c0 -30 -20 -40 -20 -60 s20 -40 20 -40" fill="none" stroke="#F7F9FC" stroke-width="15" stroke-linecap="round"/>
    <path d="M302 120 c0 -30 -20 -40 -20 -60 s20 -40 20 -40" fill="none" stroke="#F7F9FC" stroke-width="15" stroke-linecap="round"/>
</svg>
